# xmcd
#
# Track frame offsets:
#	150
#	23277
#	50142
#	71532
#	92227
#	121785
#	133402
#	157447
#	192860
#	213195
#	241365
#	268225
#	309490
#
# Disc length: 4644
#
# Revision: 2
# Processed by: cddbd v1.5.1PL0 Copyright (c) Steve Scherf et al.
# Submitted via: audiograbber 1.80.04
# Normalized: r1:DSETVAR1
#
DISCID=bf12220d
DTITLE=Various Artist - Blues Story #21
DYEAR=1998
DGENRE=Blues
TTITLE0=B.B. King - The Good Times Roll (Live At San Quentin)
TTITLE1=Jimmy Thackery and The Drivers - You Upset Me Babe
TTITLE2=Popa Chubby - Heart Attack And Wine
TTITLE3=Gary Moore and Albert Collins - Too Tired
TTITLE4=Great White - Since I've Been Loving You
TTITLE5=Fats Domino - Blueberry Hill
TTITLE6=Roy Rogers and Norton Buffalo - Mercury Blues
TTITLE7=Howlin' Wolf - Sitting On The Top Of The World
TTITLE8=Muddy Waters - I Got My Brand On You (Live At Newport)
TTITLE9=Ray Charles - Makin' Whoopie
TTITLE10=Jimmy Witherspoon - Ain't Nobody's Business
TTITLE11=Duke Robillard - Glamour Girl
TTITLE12=Albert King - Blues At Sunrise
EXTD=
EXTT0=
EXTT1=
EXTT2=
EXTT3=
EXTT4=
EXTT5=
EXTT6=
EXTT7=
EXTT8=
EXTT9=
EXTT10=
EXTT11=
EXTT12=
PLAYORDER=
